<svg viewBox="0 0 201 61" fill="none" xmlns="http://www.w3.org/2000/svg">
    <path opacity="0.42" d="M174.67 14.2602C164.458 14.2602 155.463 21.041 152.551 30.8095L150.761 27.635L160.481 14.4936C160.961 13.8984 161.335 13.735 162.259 13.3265L162.341 13.2915C162.505 13.2215 162.692 13.1281 162.867 13.0464C163.71 12.6496 164.177 11.786 164.049 10.864C163.92 9.95366 163.207 9.24174 162.294 9.10169L145.38 6.55744C144.456 6.40571 143.556 6.90756 143.181 7.73619C142.795 8.57649 143.018 9.58019 143.708 10.1754C143.778 10.2338 143.813 10.2688 143.837 10.3038L140.386 15.0655V10.6306C140.515 10.0354 140.819 9.82528 141.088 9.68523C141.93 9.28842 142.409 8.37809 142.269 7.46776C142.129 6.55743 141.368 5.83384 140.444 5.74047L124.876 3.94315C124.548 3.90814 124.232 3.94316 123.882 4.08321C123.589 3.91981 123.308 3.83812 123.016 3.82645L106.629 3.14954H106.547C105.634 3.14954 104.827 3.73308 104.558 4.6084C104.277 5.50705 104.64 6.47574 105.435 6.97758C106.582 7.70118 106.792 8.66987 106.804 9.17172V22.9434L86.3578 4.45668C85.7612 3.91982 84.8606 3.7681 84.112 4.09488C83.3517 4.43334 82.8721 5.18027 82.8721 5.99723V11.2841C82.5329 10.5839 81.8194 10.1054 80.9889 10.1054H79.0472C78.9185 10.082 78.7899 10.0704 78.6495 10.0704H64.2506C63.3265 10.0704 62.5077 10.6889 62.2387 11.5759C61.9814 12.4629 62.3557 13.4199 63.1393 13.9101C64.2623 14.6103 64.4728 15.5557 64.4962 16.0459V16.3493C64.4962 16.4427 64.4962 16.536 64.4962 16.6061V29.5724C60.1332 28.5804 55.934 31.0429 54.3783 34.8827V10.6539C54.4485 10.1054 54.6474 9.34677 55.2907 8.78657C55.9808 8.17968 56.1914 7.21101 55.8171 6.3707C55.4545 5.54207 54.6006 5.05189 53.6765 5.14526L38.1079 6.94257C37.1839 7.05928 36.4352 7.75953 36.2832 8.66986C36.1311 9.58019 36.6224 10.4905 37.4646 10.8873C37.7336 11.0157 38.0377 11.2375 38.1547 11.7743V19.2554C34.7626 13.63 28.6334 10.1871 21.9077 10.1871C20.3637 10.1871 18.8197 10.3738 17.3342 10.7356C14.7257 11.1908 10.5733 12.5096 8.74861 13.1398C8.08188 13.3732 7.69588 13.3849 7.52043 13.3616C7.35667 13.1982 7.21631 13.0114 7.08764 12.8014C6.60807 12.0311 5.62553 11.6576 4.73656 11.9144C3.84759 12.1711 3.23935 12.9998 3.23935 13.9218L3.27444 18.6018V54.6065C3.21596 55.2017 2.93523 56.042 1.9176 56.6839C1.1339 57.1741 0.771299 58.1311 1.01693 59.0181C1.26257 59.905 2.10475 60.5119 3.02881 60.5119H19.7671C20.6912 60.5119 21.51 59.8934 21.779 59.0181C22.0363 58.1311 21.662 57.1741 20.8783 56.6839C19.7203 55.9603 19.5215 54.9799 19.5098 54.4781V46.7169C20.2935 46.7986 21.1357 46.8453 21.9194 46.8453C28.6451 46.8453 34.7743 43.4024 38.1664 37.777V55.2717C37.9675 55.8669 37.5465 56.3688 36.9265 56.7656C36.1428 57.2557 35.7802 58.2128 36.0259 59.0997C36.2715 59.9867 37.1137 60.5936 38.0377 60.5936L79.8777 60.5703C80.404 60.5703 80.8953 60.3719 81.2813 60.0217C81.6673 60.3485 82.1235 60.5236 82.6031 60.5236H99.3297C100.254 60.5236 101.073 59.905 101.342 59.0181C101.599 58.1311 101.225 57.1741 100.441 56.6839C99.2829 55.9603 99.084 55.0033 99.0723 54.5014V39.5277L119.448 59.8467C120.033 60.4302 120.946 60.617 121.718 60.2902C121.928 60.2085 122.127 60.0801 122.302 59.905C122.7 60.3018 123.226 60.5353 123.8 60.5353H140.526C141.45 60.5353 142.269 59.9167 142.538 59.0414C142.795 58.1544 142.421 57.1974 141.637 56.7072C140.55 56.0186 140.292 55.1667 140.269 54.5948L140.292 41.9552L148.293 56.8356C148.258 56.929 148.188 57.0807 148.036 57.2791C147.603 57.921 147.544 58.7379 147.907 59.4265C148.27 60.1151 148.971 60.5353 149.755 60.5353L166.529 60.4886C167.184 60.4886 167.792 60.1735 168.178 59.6366C170.272 60.2552 172.447 60.5703 174.635 60.5703C187.349 60.5703 197.713 50.1832 197.713 37.4036C197.713 24.624 187.361 14.2369 174.635 14.2369L174.67 14.2602ZM182.366 37.4153C182.366 41.6518 178.916 45.0947 174.67 45.0947C170.424 45.0947 166.973 41.6518 166.973 37.4153C166.973 33.1787 170.424 29.7358 174.67 29.7358C178.916 29.7358 182.366 33.1787 182.366 37.4153ZM124.162 9.42847L124.069 54.7232C123.999 55.4234 123.648 56.0186 123.028 56.4971V9.83695V9.75526C123.074 9.04334 123.156 8.48313 123.612 8.0163C123.998 8.55316 124.115 9.1367 124.162 9.42847ZM55.7586 43.7059H54.4017V41.43C54.7293 42.247 55.1971 43.0173 55.7586 43.7059ZM22.0948 32.9103C21.2994 32.9103 20.5274 32.7119 19.8607 32.3384C19.7554 32.2684 19.6502 32.2217 19.5215 32.1867V24.8457C20.3754 24.4956 21.2058 24.4489 22.1182 24.4372H22.2001C24.5746 24.4372 26.5163 26.3396 26.5163 28.6738C26.5163 31.0079 24.5278 32.922 22.0948 32.9103ZM82.8721 54.6531C82.8253 55.1316 82.6264 55.7852 81.9714 56.3688V43.4608C81.9714 42.6438 81.4918 41.9085 80.7432 41.5701V16.0225C80.79 15.4506 81.0708 14.622 82.065 13.9801C82.4159 13.77 82.6966 13.4549 82.8721 13.0815V54.6531Z" fill="#231F20"/>
    <path d="M173.968 13.0581C163.756 13.0581 154.761 19.8389 151.849 29.6074L150.059 26.4329L159.779 13.2915C160.259 12.6963 160.633 12.5329 161.557 12.1244L161.639 12.0894C161.803 12.0194 161.99 11.926 162.166 11.8443C163.008 11.4475 163.476 10.5838 163.347 9.66185C163.218 8.75152 162.505 8.0396 161.592 7.89955L144.667 5.34362C143.743 5.1919 142.842 5.69375 142.468 6.52238C142.082 7.36269 142.304 8.36638 142.994 8.96159C143.064 9.01995 143.1 9.05497 143.123 9.08998L139.672 13.8517V9.41676C139.801 8.82155 140.105 8.61147 140.374 8.47142C141.216 8.07461 141.696 7.16428 141.556 6.25396C141.403 5.34363 140.655 4.62003 139.731 4.52666L124.162 2.72935C123.835 2.69434 123.519 2.72935 123.168 2.8694C122.876 2.70601 122.595 2.62431 122.302 2.61264L105.915 1.93573H105.833C104.921 1.93573 104.114 2.51927 103.845 3.39459C103.564 4.29325 103.927 5.26193 104.722 5.76378C105.868 6.48737 106.079 7.45605 106.09 7.9579V21.7295L85.6676 3.25454C85.0711 2.71768 84.1704 2.56595 83.4218 2.89274C82.6615 3.23119 82.1819 3.97813 82.1819 4.7951V10.082C81.8427 9.38175 81.1292 8.90324 80.2987 8.90324H78.357C78.2284 8.8799 78.0997 8.86823 77.9593 8.86823H63.5604C62.6363 8.86823 61.8176 9.48679 61.5485 10.3738C61.2912 11.2608 61.6655 12.2178 62.4492 12.708C63.5721 13.4082 63.7826 14.3535 63.806 14.8437V15.1472C63.806 15.2405 63.806 15.3339 63.806 15.4039V28.3703C59.4431 27.3783 55.2439 29.8408 53.6882 33.6805V9.45177C53.7584 8.90324 53.9572 8.14463 54.6005 7.58443C55.2907 6.97755 55.5012 6.00886 55.1269 5.16856C54.7643 4.33993 53.9104 3.84975 52.9864 3.94312L37.4294 5.74043C36.5054 5.85714 35.7568 6.55739 35.6047 7.46772C35.4527 8.37805 35.9439 9.28838 36.7861 9.68519C37.0551 9.81357 37.3593 10.0353 37.4762 10.5722V18.0532C34.0841 12.4278 27.9549 8.98494 21.2292 8.98494C19.6852 8.98494 18.1412 9.17167 16.6557 9.53347C14.0473 9.98864 9.89486 11.3074 8.07014 11.9377C7.40342 12.1711 7.01742 12.1828 6.84196 12.1594C6.67821 11.996 6.53784 11.8093 6.40918 11.5992C5.9296 10.8289 4.94706 10.4555 4.05809 10.7122C3.16913 10.969 2.56089 11.7976 2.56089 12.7196L2.59598 17.3996V53.4043C2.53749 53.9995 2.25676 54.8398 1.23913 55.4817C0.455437 55.9719 0.0928323 56.9289 0.338468 57.8159C0.584103 58.7029 1.42628 59.3098 2.35034 59.3098H19.0887C20.0127 59.3098 20.8315 58.6912 21.1005 57.8159C21.3579 56.9289 20.9836 55.9719 20.1999 55.4817C19.0419 54.7581 18.843 53.7778 18.8313 53.2759V45.5148C19.615 45.5965 20.4572 45.6432 21.2409 45.6432C27.9666 45.6432 34.0958 42.2003 37.4879 36.5749V54.0696C37.2891 54.6648 36.868 55.1666 36.2481 55.5634C35.4644 56.0536 35.1018 57.0106 35.3474 57.8976C35.6047 58.7846 36.4352 59.3915 37.3593 59.3915L79.1992 59.3681C79.7256 59.3681 80.2168 59.1697 80.6028 58.8196C80.9888 59.1464 81.445 59.3214 81.9246 59.3214H98.6512C99.5753 59.3214 100.394 58.7029 100.663 57.8159C100.92 56.9289 100.546 55.9719 99.7624 55.4817C98.6044 54.7581 98.4056 53.8011 98.3939 53.2993V38.3255L118.77 58.6445C119.355 59.2281 120.267 59.4148 121.039 59.088C121.25 59.0063 121.449 58.878 121.624 58.7029C122.022 59.0997 122.548 59.3331 123.121 59.3331H139.848C140.772 59.3331 141.591 58.7146 141.86 57.8393C142.117 56.9523 141.743 55.9953 140.959 55.5051C139.871 54.8165 139.614 53.9645 139.59 53.3926L139.614 40.7531L147.615 55.6335C147.579 55.7268 147.509 55.8785 147.357 56.077C146.924 56.7189 146.866 57.5358 147.229 58.2244C147.591 58.913 148.293 59.3331 149.077 59.3331L165.85 59.2864C166.505 59.2864 167.113 58.9713 167.499 58.4345C169.593 59.053 171.769 59.3681 173.956 59.3681C186.671 59.3681 197.034 48.9811 197.034 36.2014C197.034 23.4218 186.682 13.0347 173.956 13.0347L173.968 13.0581ZM181.664 36.2131C181.664 40.4496 178.214 43.8925 173.968 43.8925C169.722 43.8925 166.271 40.4496 166.271 36.2131C166.271 31.9766 169.722 28.5337 173.968 28.5337C178.214 28.5337 181.664 31.9766 181.664 36.2131ZM123.46 8.22633L123.367 53.521C123.297 54.2213 122.946 54.8165 122.326 55.295V8.64649V8.56479C122.373 7.85287 122.454 7.29266 122.911 6.82583C123.297 7.35101 123.414 7.93456 123.46 8.22633ZM55.0567 42.5037H53.7116V40.2279C54.0391 41.0449 54.4953 41.8151 55.0567 42.5037ZM21.393 31.6965C20.5976 31.6965 19.8256 31.4981 19.1588 31.1246C19.0536 31.0546 18.9483 31.0079 18.8196 30.9729V23.6319C19.6735 23.2818 20.504 23.2351 21.4163 23.2234H21.4982C23.8727 23.2234 25.8144 25.1258 25.8144 27.4599C25.8144 29.7941 23.8259 31.7081 21.393 31.6965ZM82.1702 53.4393C82.1234 53.9178 81.9246 54.5714 81.2696 55.1549V42.247C81.2696 41.43 80.79 40.6947 80.0414 40.3563V14.8087C80.0882 14.2368 80.3689 13.4082 81.3631 12.7663C81.714 12.5562 81.9948 12.2411 82.1702 11.8676V53.4393Z" fill="#2E3191"/>
    <path d="M65.7361 48.3392C65.2332 48.3392 64.8355 47.9424 64.8355 47.4405V13.7117C64.8355 13.665 64.8355 13.6066 64.8355 13.56V13.4549V13.1515C64.8004 12.4512 64.508 11.0624 62.9172 10.0704C62.5663 9.86029 62.4259 9.45181 62.5195 9.055C62.6364 8.65819 62.9874 8.40143 63.385 8.40143H77.784C77.8659 8.40143 77.9477 8.4131 78.0296 8.43644H80.1234C80.5211 8.43644 80.8837 8.70487 80.9889 9.09001C81.1059 9.48682 80.9421 9.89531 80.5912 10.1054C79.0472 11.0741 78.7314 12.4279 78.6729 13.1398V47.4289C78.6729 47.9307 78.2752 48.3275 77.7723 48.3275H65.7127H65.7361V48.3392Z" fill="url(#paint0_linear_27_140)"/>
    <path d="M77.7838 9.31179V9.34681H80.1115C78.2166 10.5256 77.8423 12.2178 77.7838 13.0815V47.4289H65.736V13.6184C65.736 13.6184 65.736 13.595 65.736 13.525V13.1632C65.7009 12.3346 65.3733 10.5606 63.3966 9.32347H77.7838M77.7838 7.50281H63.3849C62.5778 7.50281 61.876 8.028 61.6537 8.80995C61.4315 9.5919 61.7473 10.4089 62.4257 10.8407C63.6422 11.5993 63.8761 12.6263 63.9229 13.2099V13.5133C63.9229 13.595 63.9229 13.6767 63.9229 13.7701V47.4406C63.9229 47.9191 64.1101 48.3859 64.4493 48.7127C64.8002 49.0511 65.2564 49.2379 65.7243 49.2379H77.7838C78.778 49.2379 79.5968 48.4326 79.5968 47.4289V13.1515C79.6553 12.4979 79.9594 11.5993 81.0472 10.899C81.5736 10.5839 81.9245 10.0004 81.9245 9.35848C81.9245 8.36646 81.1174 7.54949 80.1115 7.54949H78.1113C78.006 7.53782 77.8891 7.51448 77.7838 7.50281Z" fill="#EB008B"/>
    <path d="M65.7244 8.87994H63.385C63.1861 8.87994 63.0107 9.00832 62.9522 9.19505C62.8937 9.38179 62.9756 9.59186 63.1393 9.68523C64.9056 10.794 65.2331 12.3462 65.2799 13.1748V13.525C65.2799 13.525 65.2799 13.6066 65.2799 13.6183V47.4289C65.2799 47.6739 65.4787 47.8607 65.7127 47.8607H77.7722C78.0178 47.8607 78.205 47.6623 78.205 47.4289V13.0815C78.2635 12.3112 78.6261 10.8056 80.3338 9.72024C80.4976 9.6152 80.5795 9.4168 80.521 9.23007C80.4625 9.04334 80.2871 8.91496 80.0882 8.91496H77.7605L66.3092 8.89161H65.6893L65.7244 8.87994ZM65.7244 9.75526H77.7839C77.7839 9.75526 78.3337 9.75525 78.8834 9.7786C77.702 10.9457 77.3979 12.2762 77.3394 13.0581C77.3394 13.0581 77.3394 46.1334 77.3394 46.997C76.544 46.997 66.9525 46.997 66.1689 46.997C66.1689 46.1334 66.1689 13.6183 66.1689 13.6183C66.1689 13.63 66.1689 13.6533 66.1689 13.665V13.5483V13.1515C66.1455 12.4862 65.8998 11.0157 64.6249 9.75526H65.7244Z" fill="#EB008B"/>
    <path d="M77.7722 48.1408H65.7127C65.315 48.1408 64.9992 47.8257 64.9992 47.4289V13.1748C64.9524 12.4162 64.6366 10.9457 62.9873 9.91866C62.7183 9.7436 62.5896 9.41682 62.6832 9.11338C62.7768 8.80993 63.0575 8.59985 63.3733 8.59985L80.0882 8.63486C80.404 8.63486 80.6965 8.84494 80.7784 9.14839C80.8719 9.45183 80.7433 9.79028 80.4742 9.95367C78.8016 11.0157 78.5208 12.5096 78.4741 13.1048V47.4289C78.4858 47.814 78.1699 48.1408 77.7722 48.1408ZM63.385 9.14839C63.3148 9.14839 63.2446 9.19507 63.2213 9.2651C63.1979 9.32345 63.233 9.40514 63.2914 9.45183C65.1396 10.6189 65.5022 12.2762 65.5489 13.1632V13.6183V47.4289C65.5489 47.5222 65.6191 47.5923 65.7127 47.5923H77.7722C77.8658 47.5923 77.936 47.5222 77.936 47.4289V13.0815C77.9828 12.3812 78.2986 10.6773 80.1935 9.48684C80.252 9.45182 80.2871 9.37013 80.2637 9.30011C80.2403 9.23008 80.1701 9.1834 80.0999 9.1834L63.385 9.14839ZM77.6202 47.2772H65.8999V13.1515C65.8765 12.603 65.6893 11.1791 64.4377 9.95367L63.9582 9.48684H77.7722C77.7722 9.48684 78.322 9.48684 78.8834 9.51018L79.5268 9.53352L79.0706 9.97702C77.9126 11.1091 77.6553 12.4046 77.6085 13.0815L77.6202 47.2772ZM66.4496 46.7169H77.0704V13.0581C77.1172 12.3812 77.3395 11.1791 78.2752 10.047C77.9945 10.047 77.7839 10.047 77.7839 10.047H65.2565C66.2625 11.2958 66.4262 12.6146 66.4496 13.1632V46.7169Z" fill="#EB008B"/>
    <path d="M2.18671 56.5205C1.78901 56.5205 1.42641 56.252 1.32114 55.8669C1.20417 55.4701 1.36792 55.0616 1.71883 54.8515C3.26283 53.8829 3.57864 52.529 3.63713 51.8171V15.7541L3.59034 11.0857C3.59034 10.6889 3.84768 10.3271 4.24537 10.2104C4.32725 10.1871 4.40913 10.1754 4.5027 10.1754C4.80682 10.1754 5.09925 10.3388 5.263 10.5955C5.52034 10.9924 5.78937 11.3191 6.10518 11.5876C6.10518 11.5876 6.33912 11.7043 6.8187 11.7043C7.25148 11.7043 7.75445 11.6109 8.3159 11.4125C10.1406 10.7939 14.2462 9.49848 16.7494 9.04332C18.1647 8.69319 19.6268 8.51813 21.089 8.51813C30.8442 8.51813 38.7747 16.2209 38.7747 25.6743C38.7747 35.1277 30.8442 42.8305 21.089 42.8305C19.9894 42.8305 18.8081 42.7372 17.8489 42.5738C17.7319 42.5504 17.6033 42.5037 17.498 42.4337V51.677C17.5214 52.2489 17.7319 53.7661 19.4163 54.8282C19.7672 55.0383 19.9193 55.4467 19.814 55.8436C19.697 56.2404 19.3461 56.4971 18.9484 56.4971H2.18671V56.5205ZM17.9659 30.401C18.1296 30.401 18.27 30.436 18.4104 30.5177C19.2642 30.9962 20.2351 31.253 21.2293 31.253C24.3173 31.253 26.8322 28.8255 26.8322 25.8377C26.8322 22.85 24.3641 20.4224 21.3346 20.4224H21.2293C19.9544 20.4458 18.773 20.5391 17.4746 21.2744V30.5411C17.4746 30.5411 17.498 30.5294 17.498 30.5177C17.6501 30.436 17.8021 30.401 17.9659 30.401Z" fill="url(#paint1_linear_27_140)"/>
    <path d="M21.0655 9.42849C30.3294 9.42849 37.8389 16.7111 37.8389 25.686C37.8389 34.6609 30.3294 41.9436 21.0655 41.9436C20.0712 41.9436 18.9249 41.8619 17.9775 41.6868L17.9541 31.2881C18.9015 31.8249 20.0244 32.14 21.2058 32.14C24.8085 32.14 27.721 29.3157 27.721 25.8144C27.721 22.3248 24.867 19.4888 21.3228 19.4888C21.2877 19.4888 21.2526 19.4888 21.2058 19.4888C19.849 19.5121 18.2933 19.5938 16.5621 20.7492V51.6771C16.5855 52.459 16.8663 54.3264 18.9015 55.5985H2.18661C4.06982 54.4197 4.45581 52.7391 4.5143 51.8638V15.7541L4.47921 11.0741C4.79503 11.5643 5.13424 11.9611 5.49684 12.2645C5.49684 12.2645 5.89454 12.603 6.8069 12.603C7.26308 12.603 7.84793 12.5213 8.59653 12.2645C10.4797 11.611 14.5035 10.3505 16.9014 9.94202C18.2348 9.60356 19.6384 9.42849 21.0655 9.42849ZM21.0655 7.61951C19.5449 7.61951 18.0243 7.80625 16.5387 8.15637C13.9654 8.61154 9.82471 9.91867 7.98829 10.5489C7.41514 10.7473 7.01744 10.794 6.7952 10.794C6.67823 10.794 6.58466 10.7823 6.53787 10.7706C6.33902 10.5722 6.16357 10.3622 6.01151 10.1054C5.67229 9.58022 5.08745 9.25343 4.47921 9.25343C4.31545 9.25343 4.1283 9.27678 3.96454 9.32346C3.19255 9.54521 2.65449 10.2688 2.66618 11.0741L2.70127 15.7541V51.7938C2.63109 52.459 2.31528 53.381 1.21576 54.0696C0.537341 54.5014 0.221525 55.3301 0.443767 56.1004C0.666009 56.8706 1.37952 57.4075 2.17491 57.4075H18.9132C19.7203 57.4075 20.4221 56.8823 20.6444 56.1004C20.8666 55.3301 20.5508 54.5014 19.8724 54.0696C18.6091 53.2643 18.3869 52.2023 18.3752 51.6304V51.3036V43.5658C19.229 43.6825 20.1648 43.7292 21.0538 43.7292C31.3003 43.7292 39.6402 35.6296 39.6402 25.6627C39.6402 15.6958 31.3003 7.63118 21.0655 7.61951ZM18.3869 21.8113C19.3343 21.3795 20.235 21.3211 21.2643 21.3095H21.3462C23.8727 21.3095 25.9314 23.3285 25.9314 25.8261C25.9314 28.3237 23.8259 30.3427 21.2292 30.3427C20.387 30.3427 19.5683 30.1326 18.8547 29.7242C18.7027 29.6425 18.5506 29.5724 18.3869 29.5374V21.8113Z" fill="#EB008B"/>
    <path d="M16.7844 9.51019C14.3163 9.94201 10.2458 11.2258 8.43275 11.8444C6.53785 12.4979 5.77755 11.9261 5.76585 11.9144C5.41494 11.6109 5.11082 11.2491 4.84179 10.829C4.73652 10.6656 4.53767 10.5839 4.35052 10.6423C4.16337 10.7006 4.0347 10.8757 4.0347 11.0741L4.06979 15.7541V51.8755C4.01131 52.6458 3.6487 54.1513 1.94095 55.2367C1.77719 55.3417 1.68362 55.5401 1.7538 55.7269C1.81229 55.9136 1.97604 56.042 2.17489 56.042H18.9132C19.112 56.042 19.2875 55.9136 19.3343 55.7269C19.346 55.6919 19.3577 55.6452 19.3577 55.6102C19.3577 55.4585 19.2758 55.3184 19.1471 55.2367C17.2756 54.0579 17.03 52.354 17.0066 51.6771C17.0066 51.6771 17.0066 21.5312 17.0066 21.0293C18.5038 20.0957 19.8607 19.9673 21.2292 19.944C22.8434 19.9206 24.3757 20.5158 25.522 21.6596C26.6566 22.78 27.2999 24.2622 27.2999 25.8261C27.2999 29.0706 24.5745 31.6965 21.2292 31.6965C20.1531 31.6965 19.1004 31.4281 18.188 30.9029C18.0476 30.8329 17.8839 30.8329 17.7552 30.9029C17.6148 30.9729 17.533 31.1247 17.533 31.2881V41.6751C17.5447 41.8852 17.6967 42.0719 17.919 42.107C18.8664 42.2703 20.0127 42.3637 21.0771 42.3637C30.575 42.3637 38.295 34.871 38.295 25.6744C38.295 16.466 30.575 8.97333 21.0771 8.97333C19.615 8.985 18.1763 9.16006 16.7844 9.51019ZM8.72517 12.6847C10.7955 11.9727 14.7023 10.7706 16.9598 10.3738C18.3167 10.0354 19.6969 9.87199 21.0654 9.87199C30.0721 9.87199 37.3944 16.9679 37.3944 25.686C37.3944 34.4042 30.0721 41.5001 21.0654 41.5001C20.1765 41.5001 19.2407 41.43 18.4102 41.3017C18.4102 40.6364 18.3985 33.1671 18.3985 32C19.2875 32.3851 20.2467 32.5835 21.2175 32.5835C25.0541 32.5835 28.1772 29.5491 28.1772 25.8261C28.1772 24.0171 27.452 22.3131 26.1419 21.0293C24.8202 19.7455 23.0656 19.0453 21.2058 19.0803C20.0244 19.1036 18.2465 19.1387 16.3165 20.4225C16.1995 20.5042 16.1176 20.6442 16.1176 20.7843V51.7121C16.141 52.389 16.3633 53.8945 17.6616 55.19C15.6965 55.19 5.37985 55.19 3.42646 55.19C4.59616 54.0346 4.88858 52.7041 4.94706 51.9338V15.7541C4.94706 15.7541 4.92367 13.7117 4.92367 12.3229C5.01724 12.4162 5.09912 12.5213 5.1927 12.603C5.28627 12.6963 6.3156 13.5016 8.72517 12.6847Z" fill="#EB008B"/>
    <path d="M18.9132 56.5905H2.17491C1.74212 56.5905 1.35612 56.3104 1.22746 55.8902C1.08709 55.4934 1.26255 55.0149 1.64854 54.7698C3.21593 53.7778 3.47327 52.389 3.52005 51.8404V15.7541L3.48496 11.074C3.48496 10.6305 3.77739 10.2454 4.18678 10.117C4.60787 9.98864 5.07575 10.1637 5.30969 10.5372C5.54362 10.9106 5.82435 11.2374 6.12847 11.4942C6.11677 11.4942 6.31562 11.5992 6.7952 11.5992C7.13441 11.5992 7.62568 11.5409 8.26901 11.3191C10.0703 10.7006 14.1409 9.40509 16.6791 8.9616C18.1178 8.61147 19.5916 8.42474 21.0655 8.42474C30.8558 8.42474 38.8214 16.1625 38.8214 25.6743C38.8214 35.1744 30.8558 42.9122 21.0655 42.9122C19.9893 42.9122 18.7963 42.8188 17.8137 42.6554C17.7201 42.6438 17.6383 42.6088 17.5681 42.5737V51.6654C17.5798 52.2372 17.802 53.7194 19.4513 54.7581C19.7437 54.9565 19.9075 55.2717 19.9075 55.5868C19.9075 55.6568 19.8958 55.7385 19.8724 55.8319C19.7554 56.287 19.3694 56.5905 18.9132 56.5905ZM4.57278 54.6414H16.5153C15.72 53.4393 15.5913 52.2489 15.5796 51.7237V20.7842C15.5796 20.4574 15.7434 20.154 16.0124 19.9672C18.0944 18.5784 20.0361 18.5551 21.2058 18.5317C23.1826 18.5084 25.1009 19.2553 26.5279 20.6558C27.9433 22.0447 28.7269 23.8887 28.7269 25.8377C28.7269 29.8642 25.3582 33.1437 21.2175 33.1437C20.4572 33.1437 19.6852 33.027 18.9483 32.7935L18.96 40.8348C19.6618 40.9165 20.3987 40.9632 21.0655 40.9632C29.768 40.9632 36.8446 34.1124 36.8446 25.686C36.8446 17.2596 29.768 10.4088 21.0655 10.4088C19.7437 10.4088 18.3986 10.5722 17.0885 10.899C14.8076 11.2958 10.8657 12.5212 8.91234 13.1981L8.81877 13.2331C7.19289 13.77 6.10508 13.6066 5.48514 13.3732L5.50853 15.7541V51.9338C5.45005 52.564 5.2629 53.6027 4.57278 54.6414ZM17.9541 30.3193C18.1178 30.3193 18.2816 30.3543 18.4336 30.436C19.2758 30.9145 20.235 31.1596 21.2175 31.1596C24.2704 31.1596 26.7502 28.7671 26.7502 25.826C26.7502 24.4022 26.177 23.06 25.136 22.0447C24.095 21.0176 22.7147 20.4691 21.2409 20.4924C20.1063 20.5041 18.8898 20.5858 17.5564 21.3327V30.3893C17.6733 30.3427 17.8137 30.3193 17.9541 30.3193Z" fill="#EB008B"/>
    <path d="M37.1838 56.5905C36.7861 56.5905 36.4235 56.3221 36.3182 55.9369C36.2129 55.5518 36.365 55.1317 36.7159 54.9216C37.64 54.3497 38.2482 53.5678 38.5055 52.6107V8.84493C38.3418 7.94628 37.8973 7.33939 37.137 6.97759C36.7744 6.8142 36.5639 6.40573 36.6223 6.02059C36.6925 5.62378 37.02 5.30866 37.4177 5.26198L52.9863 3.46466C52.9863 3.46466 53.0565 3.46466 53.0916 3.46466C53.4425 3.46466 53.77 3.67473 53.9221 4.00152C54.0859 4.36332 53.9923 4.78347 53.6882 5.04023C52.7407 5.86886 52.4483 6.97759 52.3781 7.75954V42.0253H75.2573C75.924 41.9902 77.3043 41.6751 78.2868 40.1112C78.4506 39.8428 78.743 39.6911 79.0471 39.6911C79.129 39.6911 79.2109 39.7027 79.3045 39.7261C79.6905 39.8428 79.9595 40.1929 79.9595 40.5897V55.6919C79.9595 56.1937 79.5618 56.5905 79.0588 56.5905L37.2189 56.6139L37.1838 56.5905Z" fill="url(#paint2_linear_27_140)"/>
    <path d="M53.0681 4.3749C51.8751 5.41361 51.5241 6.79078 51.4423 7.68944V42.9472H75.2221C76.076 42.9005 77.7955 42.5387 79.0236 40.6247V55.6918L37.1837 55.7151C38.599 54.8165 39.1722 53.661 39.3944 52.7507V8.7865C39.2541 7.88784 38.7979 6.77911 37.4995 6.18389L53.0681 4.3749ZM53.0681 2.56592C52.998 2.56592 52.9278 2.56592 52.8576 2.57759L37.289 4.3749C36.4819 4.46827 35.8386 5.08683 35.7099 5.88045C35.5812 6.68574 36.0023 7.46769 36.7275 7.80615C37.0433 7.95787 37.4293 8.21463 37.5814 8.93822V52.4939C37.3709 53.1709 36.9147 53.7311 36.2246 54.1746C35.5461 54.6064 35.2303 55.435 35.4526 56.2053C35.6748 56.9756 36.3883 57.5124 37.1837 57.5124L79.0236 57.4891C80.0179 57.4891 80.8367 56.6838 80.8367 55.6801V40.613C80.8367 39.8077 80.3103 39.1074 79.5266 38.8857C79.3628 38.839 79.1874 38.8157 79.0236 38.8157C78.4154 38.8157 77.8305 39.1191 77.4913 39.656C76.731 40.8464 75.7251 41.1032 75.1636 41.1499H53.2553V7.7828C53.3255 7.16425 53.5594 6.33561 54.2612 5.7404C54.8578 5.21521 55.0449 4.3749 54.7291 3.65131C54.4484 2.98607 53.7933 2.56592 53.0681 2.56592Z" fill="#EB008B"/>
    <path d="M53.0214 3.94314L37.4645 5.74046C37.2656 5.7638 37.1136 5.90385 37.0785 6.10226C37.0785 6.1256 37.0785 6.14894 37.0785 6.17228C37.0785 6.33568 37.172 6.49907 37.3358 6.56909C38.2482 7.00091 38.7979 7.74785 38.9617 8.83324C38.9617 8.92661 38.9617 52.5407 38.9617 52.6691C38.7628 53.4277 38.2599 54.5014 36.9498 55.3184C36.8211 55.4001 36.7393 55.5401 36.7393 55.6918C36.7393 55.7268 36.7393 55.7735 36.7627 55.8085C36.8211 56.0069 36.9849 56.1353 37.1954 56.1353L79.0354 56.112C79.281 56.112 79.4799 55.9136 79.4799 55.6802V42.9472V40.6247C79.4799 40.4263 79.3512 40.2513 79.164 40.1929C78.9769 40.1345 78.7663 40.2163 78.6611 40.3796C77.5616 42.1186 76.0293 42.4571 75.2105 42.5154C75.2105 42.5154 52.7524 42.5154 51.8985 42.5154C51.8985 41.6634 51.8985 7.70117 51.8985 7.70117C51.9804 6.87253 52.3079 5.65876 53.3723 4.72509C53.4776 4.6434 53.5244 4.51502 53.5244 4.38664C53.5244 4.31662 53.5127 4.26993 53.4893 4.21158C53.4074 4.03651 53.2202 3.93147 53.0214 3.94314ZM51.9687 4.94684C51.3253 5.86884 51.0914 6.87253 51.0095 7.64281V42.9472C51.0095 43.1923 51.2084 43.3791 51.4423 43.3791H75.2222C76.0293 43.3324 77.3978 43.0406 78.5792 41.8502V42.9356C78.5792 42.9356 78.5792 54.408 78.5792 55.2367C77.737 55.2367 40.7864 55.26 38.4353 55.26C39.2658 54.4314 39.6401 53.5327 39.8039 52.8441C39.8156 52.8091 39.8272 52.7741 39.8272 52.7391V8.78656C39.8272 8.78656 39.8272 8.73988 39.8272 8.71654C39.7103 8.02795 39.4296 7.17598 38.7043 6.4874C40.5291 6.27732 50.1673 5.15692 51.9687 4.94684Z" fill="#EB008B"/>
    <path d="M37.1954 56.4271C36.8679 56.4271 36.5872 56.217 36.5053 55.9019C36.4819 55.8552 36.4819 55.7618 36.4819 55.7035C36.4819 55.4584 36.6106 55.2366 36.8094 55.0966C38.0259 54.338 38.5055 53.346 38.6927 52.634V8.83322C38.5523 7.88788 38.0727 7.21097 37.2305 6.81416C36.9849 6.69745 36.8211 6.44069 36.8211 6.16058V6.09056C36.8679 5.72876 37.1253 5.48368 37.4528 5.44866L53.3138 3.61633V3.69803C53.5127 3.75639 53.6647 3.89644 53.7466 4.09484C53.7817 4.16487 53.8051 4.25823 53.8051 4.37494C53.8051 4.59669 53.7115 4.79509 53.5595 4.92347C52.5652 5.78712 52.2611 6.9192 52.1792 7.71282V42.2236H75.2105C76.1345 42.1653 77.4563 41.7568 78.4271 40.2162C78.6143 39.9361 78.9301 39.8194 79.2459 39.9128C79.55 40.0062 79.7606 40.2862 79.7606 40.6014V55.6918C79.7606 56.0886 79.4331 56.4037 79.0354 56.4037L37.1954 56.4271ZM52.7524 4.24656L37.4996 6.00886C37.4294 6.02053 37.3709 6.06722 37.3592 6.13725V6.17226C37.3592 6.24228 37.3943 6.30064 37.4528 6.32398C38.4587 6.79081 39.0553 7.63112 39.2307 8.79821V52.7157L39.219 52.7508C39.0085 53.556 38.4704 54.6998 37.0902 55.5634C37.0434 55.5984 37.0083 55.6451 37.0083 55.7035C37.0434 55.8319 37.1019 55.8785 37.1837 55.8785L79.0237 55.8552C79.1173 55.8552 79.1991 55.7852 79.1991 55.6918V40.6247C79.1991 40.5547 79.1523 40.4847 79.0822 40.4613C79.012 40.438 78.9301 40.473 78.8833 40.5313C77.737 42.352 76.0994 42.7255 75.2222 42.7838H51.6178V7.70114C51.7113 6.77914 52.0506 5.50702 53.1852 4.51499C53.2085 4.50332 53.2436 4.46831 53.2436 4.38662L53.2319 4.31659C53.2085 4.25823 53.1384 4.22322 53.0565 4.22322L52.7524 4.24656ZM38.447 55.5401H37.7803L38.2482 55.0732C38.9032 54.4197 39.336 53.6611 39.5465 52.7974L39.5582 8.78653C39.4179 7.91122 39.0787 7.21096 38.5289 6.68577L38.1078 6.27729L38.6927 6.20727C40.5174 5.99719 50.144 4.88846 51.9453 4.66671L52.5535 4.59669L52.2026 5.09854C51.6996 5.81046 51.3955 6.67411 51.2902 7.66613V42.9355C51.2902 43.0289 51.3604 43.0989 51.454 43.0989H75.2222C75.9006 43.0639 77.2224 42.8188 78.3803 41.6517L78.8482 41.1732V55.5051H66.1454C54.9163 55.5284 39.9091 55.5401 38.447 55.5401ZM39.2775 6.69745C39.6986 7.24598 39.9793 7.91122 40.108 8.66982V8.77486V52.7391C40.108 52.7974 40.0963 52.8558 40.0846 52.9141C39.8974 53.6727 39.5582 54.373 39.067 54.9799C42.3304 54.9799 55.8287 54.9682 66.1571 54.9682H78.3102V42.4687C77.1405 43.4024 75.9123 43.6125 75.2456 43.6591H51.454C51.0563 43.6591 50.7405 43.344 50.7405 42.9472V7.64279C50.8341 6.7558 51.068 5.96218 51.4423 5.28527C48.9509 5.57704 41.7339 6.41735 39.2775 6.69745Z" fill="#EB008B"/>
    <path d="M81.7608 56.5438C81.3631 56.5438 81.0005 56.2754 80.8952 55.8903C80.7783 55.4935 80.942 55.085 81.2812 54.8749C82.8252 53.9062 83.1527 52.5524 83.1995 51.8405V3.16123C83.1995 2.81111 83.4101 2.48432 83.7376 2.3326C83.8546 2.27424 83.9832 2.26257 84.1002 2.26257C84.3224 2.26257 84.533 2.34427 84.7084 2.49599L107.108 22.78V6.32404C107.085 5.60045 106.804 4.18827 105.19 3.1729C104.839 2.96283 104.687 2.531 104.804 2.13419C104.921 1.74905 105.272 1.50397 105.669 1.50397C105.681 1.50397 122.092 2.18088 122.092 2.18088C122.49 2.20422 122.829 2.47265 122.934 2.84612C123.039 3.23126 122.876 3.62807 122.536 3.83814C121.133 4.72513 121.039 5.98558 120.992 6.82589V6.97761V55.5401C120.992 55.9019 120.77 56.2404 120.431 56.3805C120.314 56.4271 120.197 56.4505 120.08 56.4505C119.846 56.4505 119.612 56.3571 119.437 56.1937L97.037 33.8673V51.7121C97.0721 52.4357 97.3411 53.8479 98.9787 54.8632C99.3296 55.0733 99.4817 55.4818 99.3764 55.8786C99.2594 56.2754 98.9085 56.5322 98.5108 56.5322H81.7842L81.7608 56.5438Z" fill="url(#paint3_linear_27_140)"/>
    <path d="M105.669 2.40261L122.057 3.07952C120.174 4.26995 120.138 6.04392 120.08 6.91924V55.5518L96.1246 31.6849L96.148 51.3386V51.7121C96.1714 52.5057 96.4522 54.3614 98.4874 55.6452H81.7608C83.644 54.4547 84.03 52.7741 84.0885 51.9105V3.16122L108.009 24.8224V6.32403C107.985 5.53041 107.705 3.68641 105.669 2.40261ZM105.669 0.593628C104.874 0.593628 104.172 1.10715 103.938 1.85408C103.693 2.63603 104.008 3.48801 104.698 3.91983C105.938 4.70178 106.172 5.76383 106.196 6.34737V20.7259L85.305 1.83074C84.9658 1.5273 84.533 1.3639 84.0885 1.3639C83.8312 1.3639 83.5972 1.41059 83.3516 1.5273C82.6966 1.81907 82.2755 2.47264 82.2755 3.17289V51.8405C82.2053 52.5057 81.9012 53.416 80.7783 54.1163C80.0998 54.5481 79.784 55.3767 80.0063 56.147C80.2285 56.9173 80.942 57.4542 81.7374 57.4542H98.464C99.2711 57.4542 99.9846 56.929 100.195 56.147C100.417 55.3767 100.102 54.5481 99.4232 54.1163C98.1599 53.311 97.9377 52.2489 97.926 51.6771V51.3503L97.9143 36.0498L118.782 56.8356C119.133 57.1857 119.589 57.3608 120.057 57.3608C120.29 57.3608 120.524 57.3141 120.747 57.2207C121.413 56.9406 121.87 56.2754 121.87 55.5518V6.98927V6.90757C121.94 5.93889 122.057 5.2153 123.004 4.62008C123.671 4.19993 123.998 3.39464 123.788 2.62436C123.577 1.85408 122.899 1.31722 122.115 1.28221L105.74 0.605296C105.74 0.593625 105.693 0.593628 105.669 0.593628Z" fill="#EB008B"/>
    <path d="M105.248 2.2742C105.248 2.2742 105.225 2.3559 105.225 2.40259C105.225 2.55431 105.295 2.69435 105.436 2.77605C107.307 3.95481 107.553 5.65876 107.576 6.34734C107.576 6.34734 107.576 22.0563 107.576 23.842C106.184 22.5815 84.3928 2.84608 84.3928 2.84608C84.2641 2.72937 84.0887 2.69435 83.9132 2.77605C83.7495 2.84608 83.6559 3.00947 83.6559 3.17286V51.9221C83.5974 52.6924 83.2465 54.198 81.527 55.2833C81.3633 55.3884 81.2814 55.5868 81.3399 55.7735C81.3984 55.9603 81.5621 56.0886 81.761 56.0886H98.4876C98.6864 56.0886 98.8502 55.9603 98.9087 55.7735C98.9204 55.7268 98.9204 55.6918 98.9204 55.6568C98.9204 55.5051 98.8502 55.365 98.7215 55.2833C96.85 54.1046 96.6044 52.4006 96.581 51.7121C96.581 51.7121 96.581 36.8317 96.5693 32.7585C97.9846 34.1707 119.764 55.8786 119.764 55.8786C119.893 55.9953 120.08 56.042 120.244 55.9719C120.408 55.9019 120.513 55.7385 120.513 55.5635C120.513 55.5635 120.513 6.94256 120.513 6.93089V6.81418C120.583 5.93886 120.688 4.48 122.291 3.46464C122.42 3.38294 122.501 3.24289 122.501 3.09117C122.501 3.05615 122.501 3.02114 122.478 2.97446C122.431 2.78772 122.267 2.65934 122.08 2.64767L105.693 1.97076C105.494 1.97076 105.319 2.08747 105.248 2.2742ZM108.196 25.2192C108.36 25.1491 108.453 24.9857 108.453 24.8223V6.324C108.43 5.65876 108.219 4.18823 106.956 2.89276C109.015 2.97446 119.098 3.39461 120.887 3.46464C119.799 4.63172 119.682 5.99722 119.624 6.73248V6.86086C119.624 6.86086 119.612 52.4357 119.612 54.4664C118.209 53.0659 96.4172 31.3464 96.4172 31.3464C96.2886 31.2297 96.1014 31.183 95.9377 31.253C95.7739 31.323 95.6686 31.4864 95.6686 31.6615L95.692 51.7004C95.7154 52.3773 95.9377 53.8828 97.236 55.1783C95.2709 55.1783 84.9776 55.1783 83.0125 55.1783C84.1822 54.0229 84.4747 52.7041 84.5448 51.9221C84.5448 51.9221 84.5448 6.05557 84.5448 4.14155C85.9368 5.402 107.728 25.1375 107.728 25.1375C107.857 25.2542 108.044 25.3009 108.196 25.2192Z" fill="#EB008B"/>
    <path d="M98.4759 56.3571H81.7493C81.4335 56.3571 81.1528 56.147 81.0709 55.8436C80.9773 55.5401 81.106 55.2017 81.375 55.0383C82.9892 54.0229 83.3167 52.6341 83.3752 51.8871V3.16119C83.3752 2.89276 83.5389 2.636 83.7963 2.50762C84.0653 2.39091 84.3694 2.43759 84.58 2.62433C84.58 2.62433 103.845 20.0606 107.307 23.2001V6.34734C107.284 5.71711 107.061 4.1182 105.295 3.00946C105.085 2.88108 104.956 2.64767 104.956 2.40258C104.956 2.32089 104.979 2.23919 105.003 2.1925L105.061 2.00577H105.108C105.237 1.81904 105.459 1.70233 105.716 1.70233L122.115 2.37924C122.431 2.39091 122.7 2.61266 122.77 2.9161C122.794 2.96278 122.794 3.04448 122.794 3.09116C122.794 3.33625 122.665 3.558 122.455 3.69805C120.993 4.62005 120.887 5.93886 120.817 6.8025V6.93089V55.5635C120.817 55.8552 120.642 56.1236 120.373 56.2287C120.104 56.3337 119.811 56.2754 119.601 56.077C119.589 56.0653 100.371 36.9134 96.8734 33.4238C96.8851 38.2439 96.8851 51.7121 96.8851 51.7121C96.8968 52.3423 97.1308 53.9295 98.897 55.0499C99.1076 55.1783 99.2245 55.4001 99.2245 55.6568C99.2245 55.7152 99.2245 55.7618 99.2128 55.8319C99.0725 56.147 98.7917 56.3571 98.4759 56.3571ZM84.0887 2.9978C84.0653 2.9978 84.0419 3.00946 84.0185 3.00946C83.96 3.03281 83.9249 3.09117 83.9249 3.16119V51.9105C83.8665 52.7741 83.4922 54.3614 81.6674 55.5051C81.6089 55.5401 81.5739 55.6218 81.5973 55.6918C81.6206 55.7619 81.6791 55.8085 81.7493 55.8085H98.4759C98.5461 55.8085 98.6163 55.7619 98.628 55.6918C98.628 55.6101 98.6163 55.5518 98.5578 55.5051C96.5693 54.2563 96.312 52.4357 96.2886 51.7121C96.2886 51.7004 96.2886 36.8317 96.2769 32.7469V32.0816L96.7448 32.5485C98.1601 33.9606 119.94 55.6685 119.94 55.6685C119.987 55.7152 120.057 55.7268 120.127 55.7035C120.185 55.6802 120.221 55.6218 120.221 55.5518V6.8025C120.302 5.82215 120.431 4.29327 122.115 3.21955C122.174 3.18453 122.197 3.12618 122.197 3.07949C122.174 2.97446 122.104 2.9161 122.034 2.9161L105.646 2.23919C105.576 2.23919 105.506 2.28587 105.482 2.3559L105.459 2.4376C105.471 2.48428 105.494 2.51929 105.541 2.5543C107.518 3.80309 107.787 5.62375 107.81 6.34734V24.4722L107.354 24.0521C105.962 22.7916 84.1706 3.05615 84.1706 3.05615C84.1589 3.00947 84.1238 2.9978 84.0887 2.9978ZM97.9028 55.4584H82.3459L82.8254 54.9916C83.96 53.8712 84.2174 52.5757 84.2758 51.9105V3.53465L84.732 3.95481C86.124 5.21527 107.915 24.9507 107.915 24.9507C107.962 24.9974 108.032 25.0091 108.091 24.9741C108.149 24.9507 108.196 24.8807 108.196 24.8223V6.324C108.184 5.77547 108.009 4.33995 106.781 3.09116L106.301 2.60098L106.991 2.62433C109.05 2.70602 119.133 3.12618 120.922 3.1962L121.519 3.21955L121.109 3.65136C120.08 4.74843 119.975 6.05557 119.916 6.75582V6.86086C119.916 6.86086 119.905 52.4357 119.905 54.4664V55.1316L119.437 54.6648C118.033 53.2643 96.2418 31.5448 96.2418 31.5448C96.2067 31.5098 96.1365 31.4747 96.0664 31.5098C96.0079 31.5331 95.9611 31.6031 95.9611 31.6732L95.9845 51.7121C95.9962 52.2723 96.1716 53.7311 97.4466 55.0032L97.9028 55.4584ZM83.6208 54.9099H96.6161C95.5868 53.6261 95.4347 52.2723 95.423 51.7121L95.3996 31.6732C95.3996 31.3814 95.5751 31.113 95.8441 31.0079C96.0898 30.8912 96.4056 30.9496 96.6161 31.1596C96.6278 31.1713 115.858 50.3349 119.355 53.8128C119.355 47.8023 119.367 6.87253 119.367 6.87253V6.74415C119.413 6.09058 119.507 4.86514 120.337 3.73306C117.834 3.62802 110.325 3.31291 107.6 3.20787C108.582 4.46833 108.722 5.77547 108.746 6.324V24.834C108.746 25.1141 108.582 25.3592 108.325 25.4876C108.079 25.6043 107.775 25.5576 107.553 25.3709C107.553 25.3709 88.2879 7.92291 84.8256 4.78344V51.9455C84.7554 52.6107 84.5215 53.7895 83.6208 54.9099Z" fill="#EB008B"/>
    <path d="M173.804 56.5672C161.733 56.5672 151.919 46.6936 151.919 34.5792C151.919 22.4649 161.744 12.5913 173.804 12.5913C185.863 12.5913 195.689 22.4532 195.689 34.5792C195.689 46.7053 185.863 56.5672 173.804 56.5672ZM173.804 25.7211C168.903 25.7211 164.926 29.7008 164.926 34.5792C164.926 39.4577 168.915 43.4374 173.804 43.4374C178.705 43.4374 182.682 39.4577 182.682 34.5792C182.682 29.6891 178.693 25.7211 173.804 25.7211Z" fill="url(#paint4_linear_27_140)"/>
    <path d="M173.804 13.49C185.408 13.49 194.788 22.9317 194.788 34.5792C194.788 46.2268 185.396 55.6685 173.804 55.6685C162.212 55.6685 152.82 46.2268 152.82 34.5792C152.82 22.9317 162.212 13.49 173.804 13.49ZM173.804 44.3361C179.208 44.3361 183.594 39.9595 183.594 34.5676C183.594 29.1756 179.208 24.8107 173.804 24.8107C168.4 24.8107 164.014 29.1873 164.014 34.5676C164.014 39.9595 168.4 44.3361 173.804 44.3361ZM173.804 11.681C161.242 11.681 151.007 21.9513 151.007 34.5792C151.007 47.2071 161.23 57.4775 173.804 57.4775C186.367 57.4775 196.601 47.2071 196.601 34.5792C196.601 21.9513 186.367 11.681 173.804 11.681ZM173.804 42.5271C171.675 42.5271 169.675 41.6985 168.166 40.2046C166.657 38.7107 165.839 36.7033 165.839 34.5792C165.839 30.191 169.418 26.6314 173.816 26.6314C178.226 26.6314 181.793 30.2027 181.793 34.5792C181.781 38.9675 178.214 42.5388 173.804 42.5271Z" fill="#EB008B"/>
    <path d="M152.364 34.5792C152.364 46.4485 161.978 56.1003 173.792 56.1003C185.618 56.1003 195.221 46.4368 195.221 34.5792C195.221 22.7099 185.606 13.0581 173.792 13.0581C161.978 13.0581 152.364 22.7099 152.364 34.5792ZM153.252 34.5792C153.252 23.2001 162.47 13.9451 173.804 13.9451C185.127 13.9451 194.356 23.2118 194.356 34.5792C194.356 45.97 185.138 55.225 173.804 55.225C162.47 55.225 153.252 45.9583 153.252 34.5792Z" fill="#EB008B"/>
    <path d="M173.804 56.3804C161.838 56.3804 152.094 46.6002 152.094 34.5792C152.094 22.5582 161.838 12.778 173.804 12.778C185.77 12.778 195.514 22.5582 195.514 34.5792C195.514 46.6002 185.77 56.3804 173.804 56.3804ZM173.804 13.3265C162.142 13.3265 152.644 22.8617 152.644 34.5792C152.644 46.2968 162.13 55.8319 173.804 55.8319C185.466 55.8319 194.964 46.2968 194.964 34.5792C194.964 22.8617 185.466 13.3265 173.804 13.3265ZM173.804 55.5051C162.318 55.5051 152.983 46.1217 152.983 34.5792C152.983 23.0484 162.329 13.665 173.804 13.665C185.29 13.665 194.625 23.0484 194.625 34.5792C194.625 46.1101 185.279 55.5051 173.804 55.5051ZM173.804 14.2135C162.622 14.2135 153.533 23.3518 153.533 34.5792C153.533 45.8183 162.622 54.9566 173.804 54.9566C184.986 54.9566 194.075 45.8183 194.075 34.5792C194.075 23.3518 184.975 14.2135 173.804 14.2135Z" fill="#EB008B"/>
    <path d="M163.569 34.5792C163.569 40.2046 168.155 44.7795 173.792 44.7795C179.43 44.7795 184.016 40.2046 184.016 34.5792C184.016 28.9538 179.43 24.3788 173.792 24.3788C168.155 24.3788 163.569 28.9538 163.569 34.5792ZM164.447 34.5792C164.447 29.444 168.634 25.2658 173.781 25.2658C178.927 25.2658 183.115 29.444 183.115 34.5792C183.115 39.7144 178.927 43.8926 173.781 43.8926C168.646 43.8926 164.447 39.7144 164.447 34.5792Z" fill="#EB008B"/>
    <path d="M173.792 45.0597C168.002 45.0597 163.289 40.3563 163.289 34.5792C163.289 28.8021 168.002 24.0988 173.792 24.0988C179.582 24.0988 184.296 28.8021 184.296 34.5792C184.296 40.3563 179.582 45.0597 173.792 45.0597ZM173.792 24.6473C168.307 24.6473 163.838 29.1056 163.838 34.5792C163.838 40.0528 168.307 44.5111 173.792 44.5111C179.278 44.5111 183.746 40.0528 183.746 34.5792C183.746 29.1056 179.278 24.6473 173.792 24.6473ZM173.792 44.1727C168.494 44.1727 164.178 39.8661 164.178 34.5792C164.178 29.2923 168.494 24.9857 173.792 24.9857C179.091 24.9857 183.407 29.2923 183.407 34.5792C183.407 39.8661 179.091 44.1727 173.792 44.1727ZM173.792 25.5343C168.798 25.5343 164.727 29.5957 164.727 34.5792C164.727 39.5627 168.798 43.6241 173.792 43.6241C178.787 43.6241 182.858 39.5627 182.858 34.5792C182.858 29.5957 178.787 25.5343 173.792 25.5343Z" fill="#EB008B"/>
    <path d="M61.7008 42.9239C57.4899 42.9239 54.0627 39.5044 54.0627 35.3029C54.0627 31.0897 57.4899 27.6818 61.7008 27.6818C65.9234 27.6818 69.3389 31.1013 69.3389 35.3029C69.3506 39.516 65.9234 42.9239 61.7008 42.9239Z" fill="url(#paint5_linear_27_140)"/>
    <path d="M61.7123 28.5803C65.4203 28.5803 68.4498 31.5914 68.4498 35.3028C68.4498 39.0141 65.432 42.0252 61.7123 42.0252C57.9927 42.0252 54.9749 39.0141 54.9749 35.3028C54.9749 31.5914 57.9927 28.5803 61.7123 28.5803ZM61.7123 26.7714C56.9985 26.7714 53.1619 30.5994 53.1619 35.3028C53.1619 40.0061 56.9985 43.8342 61.7123 43.8342C66.4262 43.8342 70.2628 40.0061 70.2628 35.3028C70.2628 30.5994 66.4262 26.7714 61.7123 26.7714Z" fill="#EB008B"/>
    <path d="M54.5305 35.3028C54.5305 39.2476 57.7472 42.4571 61.7007 42.4571C65.6543 42.4571 68.871 39.2476 68.871 35.3028C68.871 31.3581 65.6543 28.1486 61.7007 28.1486C57.7472 28.1486 54.5305 31.3581 54.5305 35.3028ZM55.4195 35.3028C55.4195 31.8366 58.2501 29.0239 61.7124 29.0239C65.1864 29.0239 68.0054 31.8482 68.0054 35.3028C68.0054 38.7691 65.1747 41.5817 61.7124 41.5817C58.2384 41.5934 55.4195 38.7691 55.4195 35.3028Z" fill="#EB008B"/>
    <path d="M61.7007 42.7372C57.5951 42.7372 54.2498 39.3993 54.2498 35.3028C54.2498 31.2064 57.5951 27.8685 61.7007 27.8685C65.8063 27.8685 69.1517 31.2064 69.1517 35.3028C69.1517 39.3993 65.8063 42.7372 61.7007 42.7372ZM61.7007 28.417C57.8992 28.417 54.7995 31.5098 54.7995 35.3028C54.7995 39.0959 57.8992 42.1886 61.7007 42.1886C65.5022 42.1886 68.6019 39.0959 68.6019 35.3028C68.6019 31.5098 65.5139 28.417 61.7007 28.417ZM61.7007 41.8619C58.0864 41.8619 55.1387 38.9208 55.1387 35.3028C55.1387 31.6965 58.0864 28.7555 61.7007 28.7555C65.3151 28.7555 68.2627 31.6965 68.2627 35.3028C68.2627 38.9208 65.3268 41.8619 61.7007 41.8619ZM61.7007 29.304C58.3905 29.304 55.6885 32 55.6885 35.3028C55.6885 38.6174 58.3905 41.3133 61.7007 41.3133C65.0109 41.3133 67.7129 38.6174 67.7129 35.3028C67.7129 32 65.0226 29.304 61.7007 29.304Z" fill="#EB008B"/>
    <path d="M122.946 56.5439C122.548 56.5439 122.185 56.2754 122.08 55.8903C121.975 55.5052 122.127 55.085 122.466 54.8749C123.928 53.9529 124.314 52.7625 124.384 51.9222L124.478 6.54581C124.396 5.76386 124.08 4.67847 123.168 3.87318C122.864 3.61642 122.77 3.19626 122.934 2.83447C123.086 2.50768 123.413 2.29761 123.764 2.29761C123.799 2.29761 123.835 2.29761 123.87 2.29761L139.438 4.09493C139.836 4.14161 140.163 4.44505 140.234 4.85353C140.304 5.25034 140.093 5.64715 139.719 5.81054C138.959 6.16067 138.503 6.79089 138.362 7.67788L138.339 15.9059L144 8.08636C144.351 7.52616 144.257 7.01264 143.614 6.47578C143.31 6.21902 143.216 5.77553 143.392 5.41373C143.544 5.08695 143.871 4.88854 144.211 4.88854C144.257 4.88854 144.304 4.88854 144.351 4.90021L161.288 7.45614C161.686 7.51449 161.99 7.82961 162.048 8.21475C162.107 8.61156 161.896 8.99669 161.534 9.16008C161.323 9.26512 161.124 9.34682 160.937 9.42851C159.966 9.86034 159.393 10.1288 158.715 10.9574L148.527 24.7174L164.189 52.5291C164.903 53.6728 165.441 54.3031 166.236 54.8516C166.563 55.0733 166.692 55.4818 166.587 55.8553C166.47 56.2288 166.119 56.4855 165.733 56.4855L148.96 56.5322C148.62 56.5322 148.316 56.3455 148.153 56.0537C147.989 55.7502 148.012 55.3884 148.211 55.12C148.878 54.1747 148.667 53.7078 148.667 53.6962L138.315 34.4509L138.292 51.7938C138.315 52.4941 138.596 53.8479 140.21 54.8749C140.561 55.085 140.713 55.4935 140.608 55.8903C140.491 56.2871 140.14 56.5439 139.742 56.5439H123.016H122.946Z" fill="url(#paint6_linear_27_140)"/>
    <path d="M123.753 3.17291L139.321 4.97023C138.023 5.57712 137.579 6.67418 137.438 7.57284L137.403 18.6835L144.714 8.5882C145.182 7.86461 145.38 6.80256 144.187 5.76385L161.124 8.31977C159.791 8.93832 158.937 9.18341 157.978 10.3622L147.427 24.6473L163.37 52.9726C164.154 54.233 164.774 54.9449 165.686 55.5985L148.913 55.6452C149.989 54.1046 149.404 53.2643 149.404 53.2643L137.368 30.8913L137.345 51.4437V51.8172C137.368 52.6108 137.649 54.3731 139.684 55.6569H122.957C124.841 54.4664 125.227 52.8675 125.285 52.0039L125.379 6.51078C125.285 5.61212 124.946 4.23496 123.753 3.19625M123.764 1.38727C123.051 1.38727 122.408 1.80742 122.115 2.47266C121.799 3.19625 121.987 4.04823 122.583 4.56175C123.273 5.15696 123.507 5.9856 123.589 6.60415L123.495 51.9222C123.414 52.8208 122.911 53.5561 122.01 54.1163C121.332 54.5481 121.016 55.3768 121.238 56.147C121.46 56.9173 122.174 57.4542 122.969 57.4542H139.696C140.503 57.4542 141.205 56.929 141.427 56.147C141.649 55.3768 141.333 54.5481 140.655 54.1163C139.462 53.3694 139.181 52.4357 139.158 51.7705V51.4203L139.181 38.0338L147.743 53.9646C147.72 54.0696 147.65 54.268 147.427 54.5948C147.041 55.1433 146.995 55.8669 147.31 56.4622C147.626 57.0574 148.246 57.4308 148.913 57.4308L165.686 57.3842C166.482 57.3842 167.172 56.8706 167.417 56.1237C167.651 55.3651 167.382 54.5598 166.739 54.1046C166.049 53.6261 165.604 53.1009 164.938 52.0389L149.591 24.7757L159.428 11.4942C159.955 10.8524 160.376 10.6656 161.3 10.2571C161.499 10.1754 161.698 10.0821 161.908 9.97703C162.622 9.63858 163.043 8.8683 162.938 8.07468C162.821 7.28106 162.212 6.67418 161.417 6.5458L144.48 4.00154C144.386 3.98987 144.293 3.97821 144.211 3.97821C143.509 3.97821 142.866 4.37502 142.573 5.02858C142.234 5.75218 142.421 6.61582 143.029 7.15268C143.263 7.36276 143.298 7.46779 143.298 7.46779C143.298 7.46779 143.275 7.52615 143.228 7.60785L139.251 13.1048L139.275 7.77124C139.415 7.05932 139.801 6.79089 140.117 6.63917C140.854 6.28904 141.263 5.50709 141.134 4.71347C141.006 3.90818 140.362 3.30129 139.555 3.20792L123.987 1.41061C123.905 1.41061 123.835 1.39894 123.764 1.38727Z" fill="#EB008B"/>
    <path d="M123.343 2.99782C123.32 3.05617 123.308 3.11453 123.308 3.17288C123.308 3.28959 123.367 3.41797 123.46 3.51134C124.513 4.43334 124.852 5.65878 124.934 6.52243L124.829 51.9688C124.759 52.8792 124.338 54.2213 122.712 55.2484C122.583 55.33 122.501 55.4701 122.501 55.6218C122.501 55.6568 122.501 55.7035 122.525 55.7385C122.583 55.9253 122.759 56.0536 122.957 56.0536H139.684C139.883 56.0536 140.047 55.9253 140.117 55.7385C140.128 55.6919 140.14 55.6568 140.14 55.6218C140.14 55.4701 140.07 55.33 139.93 55.2484C138.117 54.1163 137.813 52.5757 137.789 51.7704C137.789 51.7704 137.813 37.567 137.813 32.6068C139.251 35.2795 149.018 53.4394 149.018 53.4394C149.042 53.4627 149.123 53.6144 149.123 53.8945C149.123 54.2213 149.006 54.6998 148.55 55.3651C148.492 55.4351 148.468 55.5285 148.468 55.6218C148.468 55.6919 148.492 55.7619 148.527 55.8319C148.597 55.9836 148.749 56.0653 148.925 56.0653L165.698 56.0186C165.885 56.0186 166.061 55.8903 166.119 55.7152C166.178 55.5285 166.107 55.3301 165.955 55.225C165.101 54.6181 164.528 53.9646 163.768 52.7274C163.78 52.7391 149.498 27.3783 147.977 24.6706C148.305 24.2272 158.364 10.6422 158.364 10.6422C159.089 9.74359 159.744 9.45182 160.738 9.00832L161.323 8.73989C161.487 8.66987 161.581 8.50647 161.581 8.34308C161.581 8.31974 161.581 8.2964 161.581 8.27306C161.557 8.07465 161.394 7.92293 161.206 7.89959L144.246 5.32033C144.047 5.29699 143.86 5.39035 143.79 5.57708C143.766 5.63544 143.743 5.69379 143.743 5.76382C143.743 5.8922 143.801 6.02057 143.895 6.10227C144.386 6.53409 144.632 6.97759 144.632 7.44442C144.632 7.74787 144.538 8.05131 144.328 8.35476C144.328 8.35476 139.731 14.7037 137.836 17.318C137.836 15.2289 137.859 7.71286 137.859 7.63116C138.023 6.55744 138.573 5.79883 139.485 5.37868C139.649 5.30866 139.743 5.14526 139.743 4.98187C139.743 4.95853 139.743 4.93519 139.731 4.91185C139.707 4.71344 139.544 4.56172 139.345 4.53838L123.776 2.74106C123.601 2.70605 123.414 2.81109 123.343 2.99782ZM125.718 52.0155L125.811 6.48742C125.741 5.68212 125.496 4.66676 124.852 3.74476C126.677 3.95483 136.304 5.06357 138.117 5.27364C137.403 5.96222 137.111 6.81419 136.994 7.50278C136.994 7.52612 136.994 7.53779 136.994 7.57281L136.959 18.6835C136.959 18.8819 137.076 19.0453 137.263 19.1036C137.438 19.162 137.637 19.1036 137.754 18.9402L145.065 8.84493C145.369 8.36642 145.509 7.89959 145.509 7.43275C145.509 7.07096 145.416 6.72083 145.24 6.37071C147.018 6.63914 157.346 8.20303 159.604 8.55316C158.902 8.90328 158.294 9.3001 157.639 10.1054C157.627 10.1287 147.065 24.3905 147.065 24.3905C147.006 24.4606 146.983 24.5539 146.983 24.6473C146.983 24.7173 147.006 24.799 147.041 24.8574L162.984 53.1826C163.511 54.0346 163.979 54.6415 164.493 55.155C162.528 55.155 150.96 55.19 149.662 55.19C149.907 54.6765 149.989 54.2447 149.989 53.9062C149.989 53.3693 149.802 53.0542 149.755 53.0075C149.778 53.0426 137.742 30.6695 137.742 30.6695C137.637 30.4944 137.438 30.4011 137.251 30.4477C137.052 30.4944 136.912 30.6695 136.912 30.8796L136.888 51.8054C136.912 52.4707 137.122 53.9296 138.432 55.2017C136.467 55.2017 126.186 55.2017 124.209 55.2017C125.379 54.0579 125.671 52.7741 125.718 52.0155Z" fill="#EB008B"/>
    <path d="M139.672 56.3338H122.946C122.63 56.3338 122.349 56.1237 122.256 55.8202C122.22 55.7619 122.22 55.6802 122.22 55.6218C122.22 55.3767 122.349 55.155 122.56 55.0149C124.092 54.0463 124.49 52.8091 124.548 51.9455L124.653 6.51076C124.572 5.72881 124.267 4.57339 123.273 3.69808C123.109 3.53468 123.028 3.34795 123.028 3.16122C123.028 3.09119 123.039 3.02117 123.063 2.93947L123.086 2.86945C123.203 2.58935 123.495 2.40261 123.823 2.43762L139.392 4.23493C139.696 4.28162 139.941 4.50337 140.012 4.79514L140.023 4.81848L140.035 4.94686C140.035 5.22696 139.871 5.47205 139.614 5.60043C138.795 5.98557 138.304 6.67415 138.14 7.64283V8.20303C138.14 9.80194 138.117 14.1785 138.117 16.4427L144.105 8.16802C144.269 7.92293 144.351 7.66618 144.351 7.42109C144.351 7.03595 144.141 6.66248 143.708 6.28901C143.556 6.14896 143.462 5.95055 143.462 5.75215C143.462 5.64711 143.485 5.54208 143.532 5.43704C143.649 5.16861 143.953 4.98187 144.269 5.04023L161.206 7.59615C161.522 7.64284 161.768 7.88792 161.815 8.20303V8.30807C161.815 8.58818 161.651 8.83326 161.393 8.96164L160.809 9.23008C159.803 9.68524 159.206 9.942 158.528 10.794C158.434 10.9107 149.369 23.1534 148.258 24.6707C149.194 26.3396 152.995 33.0854 156.621 39.5394L161.709 48.5726C163.195 51.2102 163.756 52.2023 163.908 52.6107L163.955 52.5757C164.704 53.7778 165.253 54.4197 166.072 54.9916C166.33 55.1667 166.435 55.4935 166.341 55.7852C166.248 56.0887 165.967 56.2871 165.651 56.2871L148.878 56.3338C148.597 56.3338 148.363 56.182 148.234 55.9486C148.176 55.8552 148.153 55.7385 148.153 55.6218C148.153 55.4701 148.199 55.3184 148.293 55.2017C148.632 54.7232 148.808 54.268 148.808 53.8945C148.808 53.6845 148.749 53.5911 148.749 53.5911L138.046 33.6922C138.035 39.3643 138.023 51.7704 138.023 51.7704C138.035 52.5174 138.327 53.9529 140.035 55.0149C140.245 55.155 140.374 55.3767 140.374 55.6218C140.374 55.6685 140.362 55.7152 140.351 55.7735C140.257 56.1353 139.976 56.3338 139.672 56.3338ZM123.601 3.07952C123.577 3.14955 123.577 3.17289 123.577 3.17289C123.577 3.21957 123.601 3.26625 123.647 3.31294C124.77 4.29329 125.11 5.58876 125.203 6.49909L125.098 51.9805C125.039 52.8091 124.665 54.338 122.852 55.4935C122.805 55.5285 122.77 55.5868 122.77 55.6335C122.794 55.7502 122.864 55.7969 122.946 55.7969H139.672C139.742 55.7969 139.813 55.7502 139.836 55.6685C139.836 55.5752 139.813 55.5285 139.766 55.4935C137.848 54.2914 137.52 52.6574 137.497 51.7821C137.497 51.7704 137.52 37.567 137.52 32.6069L138.035 32.4785L149.24 53.311C149.264 53.346 149.381 53.5444 149.381 53.8945C149.381 54.3847 149.17 54.9332 148.761 55.5168C148.737 55.5518 148.726 55.5868 148.726 55.6102C148.726 55.6335 148.726 55.6568 148.749 55.6802C148.796 55.7619 148.866 55.7735 148.901 55.7735L165.675 55.7269C165.745 55.7269 165.815 55.6802 165.838 55.6102C165.862 55.5401 165.838 55.4701 165.768 55.4234C164.879 54.8049 164.294 54.128 163.499 52.8442L163.37 52.6341L163.382 52.6224C162.739 51.4787 159.534 45.7833 156.153 39.7961C152.399 33.132 148.457 26.1295 147.696 24.7757L147.615 24.624L147.72 24.4839C148.047 24.0404 158.001 10.5839 158.107 10.4555C158.879 9.49851 159.592 9.18339 160.575 8.7399L161.183 8.45979C161.241 8.43645 161.288 8.36643 161.288 8.30807C161.277 8.21471 161.218 8.15635 161.148 8.14468L144.211 5.58876C144.141 5.58876 144.07 5.6121 144.047 5.67046L144.024 5.75215C144.024 5.79883 144.047 5.84552 144.082 5.88053C144.632 6.35904 144.913 6.87256 144.913 7.42109C144.913 7.78289 144.796 8.14468 144.573 8.48314L137.579 18.1466V17.2947C137.579 15.544 137.602 10.0354 137.602 8.20303V7.60782C137.789 6.40572 138.397 5.56541 139.38 5.11025C139.438 5.08691 139.485 5.01688 139.485 4.95853C139.473 4.86516 139.403 4.80681 139.333 4.79514L123.776 2.99782C123.706 2.99782 123.636 3.02117 123.601 3.07952ZM139.111 55.4701H123.542L124.022 55.0033C125.121 53.9179 125.39 52.7275 125.461 52.0739V52.0155L125.554 6.48742C125.496 5.83385 125.285 4.81848 124.642 3.90815L124.291 3.4063L124.899 3.47633C126.724 3.6864 136.35 4.79514 138.163 5.00522L138.737 5.07524L138.315 5.48372C137.625 6.14896 137.368 6.98926 137.274 7.56114L137.239 18.6952C137.239 18.7652 137.286 18.8235 137.356 18.8469C137.438 18.8702 137.508 18.8469 137.555 18.7885L144.866 8.69321C145.123 8.28473 145.263 7.85291 145.263 7.44443C145.263 7.12931 145.182 6.8142 145.018 6.51076L144.772 6.03225L150.901 6.96592C154.387 7.49111 158.364 8.098 159.674 8.29641L160.54 8.42478L159.756 8.80992C159.077 9.14838 158.493 9.52185 157.884 10.2921C157.884 10.2921 157.522 10.794 147.322 24.5656C147.299 24.589 147.287 24.624 147.287 24.659C147.287 24.6823 147.299 24.7173 147.31 24.7407L163.253 53.0659C163.756 53.8829 164.212 54.4781 164.715 54.9799L165.183 55.4468H164.517C163.44 55.4468 159.428 55.4584 155.849 55.4701C152.925 55.4818 150.281 55.4818 149.697 55.4818H149.264L149.451 55.085C149.65 54.6648 149.755 54.268 149.755 53.9179C149.755 53.4277 149.591 53.1943 149.58 53.1943L149.404 52.9609L149.439 52.9375C148.223 50.6617 137.66 31.0313 137.543 30.8212C137.508 30.7512 137.438 30.7162 137.356 30.7395C137.286 30.7512 137.228 30.8212 137.228 30.9029L137.204 51.8288C137.216 52.3773 137.391 53.7895 138.666 55.0266L139.111 55.4701ZM124.829 54.9216H137.812C136.795 53.6728 136.643 52.354 136.619 51.8054L136.643 30.8679C136.643 30.5294 136.865 30.2493 137.193 30.1676C137.508 30.0976 137.824 30.2377 137.988 30.5178L148.129 49.3662C149.299 51.537 149.778 52.4357 149.942 52.8442L149.977 52.8208C149.989 52.8325 150.27 53.1826 150.27 53.8945C150.27 54.2096 150.211 54.5481 150.083 54.8982C151.077 54.8982 153.358 54.8866 155.826 54.8866C158.902 54.8749 162.294 54.8632 163.873 54.8632C163.499 54.4314 163.148 53.9295 162.762 53.311L146.796 24.9974C146.737 24.8924 146.702 24.7757 146.702 24.6473C146.702 24.4956 146.749 24.3439 146.843 24.2155C146.948 24.0754 157.276 10.1287 157.405 9.942C157.873 9.35845 158.329 8.97331 158.762 8.69321C157.019 8.42478 153.72 7.93461 150.784 7.47944L145.673 6.70916C145.743 6.94258 145.778 7.18767 145.778 7.42109C145.778 7.93461 145.614 8.45979 145.287 8.98498L137.965 19.1036C137.766 19.3604 137.462 19.4538 137.169 19.3604C136.877 19.267 136.666 18.9986 136.666 18.6835L136.713 7.46777C136.807 6.91924 137.017 6.17231 137.543 5.49539C135.099 5.21529 127.882 4.38666 125.379 4.09489C125.847 4.95853 126.022 5.83385 126.08 6.46408L125.987 51.8988L126.01 51.9105L125.999 52.0389C125.952 52.6691 125.741 53.8128 124.829 54.9216Z" fill="#EB008B"/>
    <defs>
        <linearGradient id="paint0_linear_27_140" x1="71.7502" y1="51.5218" x2="71.7502" y2="25.0823" gradientUnits="userSpaceOnUse">
            <stop stop-color="#83D0F5"/>
            <stop offset="1" stop-color="#F1F9FD"/>
        </linearGradient>
        <linearGradient id="paint1_linear_27_140" x1="20.0164" y1="61.1108" x2="20.0164" y2="37.5014" gradientUnits="userSpaceOnUse">
            <stop stop-color="#83D0F5"/>
            <stop offset="1" stop-color="#F1F9FD"/>
        </linearGradient>
        <linearGradient id="paint2_linear_27_140" x1="58.1126" y1="63.7827" x2="58.1126" y2="29.7651" gradientUnits="userSpaceOnUse">
            <stop stop-color="#83D0F5"/>
            <stop offset="1" stop-color="#F1F9FD"/>
        </linearGradient>
        <linearGradient id="paint3_linear_27_140" x1="101.907" y1="66.8735" x2="101.907" y2="24.8403" gradientUnits="userSpaceOnUse">
            <stop stop-color="#83D0F5"/>
            <stop offset="1" stop-color="#F1F9FD"/>
        </linearGradient>
        <linearGradient id="paint4_linear_27_140" x1="173.8" y1="61.7532" x2="173.8" y2="31.9622" gradientUnits="userSpaceOnUse">
            <stop stop-color="#83D0F5"/>
            <stop offset="1" stop-color="#F1F9FD"/>
        </linearGradient>
        <linearGradient id="paint5_linear_27_140" x1="61.7042" y1="46.327" x2="61.7042" y2="32.9025" gradientUnits="userSpaceOnUse">
            <stop stop-color="#83D0F5"/>
            <stop offset="1" stop-color="#F1F9FD"/>
        </linearGradient>
        <linearGradient id="paint6_linear_27_140" x1="144.322" y1="59.0999" x2="144.322" y2="34.2338" gradientUnits="userSpaceOnUse">
            <stop stop-color="#83D0F5"/>
            <stop offset="1" stop-color="#F1F9FD"/>
        </linearGradient>
    </defs>
</svg>
